<svg xmlns="http://www.w3.org/2000/svg" width="1024" height="1024" viewBox="0 0 1024 1024"><path fill="#78c2e4" d="M272.034 231.383c.791.787 1.814 16.477 2.075 19 3.438 33.291 17.556 66.869 39.52 92.034 16.034 18.369 30.954 31.334 44.488 51.31a145 145 0 0 1 6.671-11.54c8.759-13.672 24.61-30.122 37.603-40.022 60.26-45.913 145.088-48.672 207.539-7.947a178.8 178.8 0 0 1 77.166 113.74 180.7 180.7 0 0 1-16.382 118.599c-5.903 11.307-10.907 17.82-17.695 28.096 6.894 8.486 22.29 22.745 30.405 30.865l66.26 65.911c9.196 9.168 21.35 19.927 28.844 29.862 13.515 17.914-1.027 47.242-24.015 46.246-4.311-.187-11.901-1.112-15.265-3.654-11.685-8.831-21.693-20.357-32.286-30.608a10275 10275 0 0 1-98.133-97.731c-11.693 6.79-20.96 12.473-34.212 16.756 1.269-8.072 3.394-15.933 4.034-24.312.344-4.501.728-12.743 1.59-17.04 2.194-3.062 9.598-6.357 12.135-8.327 19.097-14.827 35.894-33.175 46.841-55.065a141.86 141.86 0 0 0 7.358-109.602c-12.782-38.183-39.211-65.641-74.777-83.411-36.705-16.066-74.673-18.591-111.897-3.431-117.418 47.822-120.011 211.328-5.391 264.289 7.772 3.591 15.555 5.631 22.989 8.882l.56.25c-2.106 7.713-10.147 24.963-17.272 29.917-1.653 1.15-4.487.596-6.397-.03-18.715-6.134-36.907-16.313-52.282-28.57-7.68-5.992-14.774-13.72-23.199-18.633-25.066-14.615-54.151-20.205-76.729-39.287-10.288-8.695-15.787-13.858-22.256-25.822 14.252 8.248 30.825 12.368 46.54 16.587-7.657-10.159-21.695-18.653-32.404-26.063-34.449-23.837-55.469-50.485-62.834-92.644 13.429 18.688 33.38 34.326 53.535 45.132 11.942 6.403 21.991 11.295 33.548 18.618-9.241-16.008-29.267-32.047-42.855-44.898-30.22-28.581-50.364-64.896-48.567-107.62.343-8.171.276-15.423 2.348-23.527.451.435 5.261 12.593 6.036 14.398 8.528 19.833 23.066 38.911 38.67 53.552 15.2 14.261 27.843 24.438 38.47 42.46-6.238-22.152-17.601-36.806-30.839-54.987-18.921-25.986-32.124-52.418-32.54-85.461-.259-20.6 8.149-51.319 23.002-66.272"/><path fill="#78c2e4" d="M544.67 550.667c8.047-1.595 12.941 1.289 19.024 5.901 9.249-2.872 15.722-3.975 25.223-.577 2.789.998 6.26 1.796 7.57 4.421-1.172 3.393-7.92 5.127-11.755 8.093a41.2 41.2 0 0 0-13 17.4c-3.913 9.821-5.024 20.792-5.748 31.251-1.299 18.773-3.671 36.186-12.902 53.056-36.929 67.489-135.928 44.619-175.376 107.582-2.849 4.865-5.588 11.358-7.722 16.578-10.951-83.449 53.85-85.735 100.812-130.92 18.208-17.519 23.029-50.953 37.849-73.324-14.565-.284-22.447-2.702-31.241-15.02 31.76 2.96 43.492-20.986 67.266-24.441"/><path fill="#78c2e4" d="M494.903 445.771c21.446-3.547 41.687 11.022 45.13 32.485s-11.224 41.633-32.704 44.972c-21.332 3.316-41.334-11.23-44.754-32.546s11.029-41.388 32.328-44.911m8.778 61.644c7.007-1.641 11.567-3.6 15.598-10.288a24.54 24.54 0 0 0 2.646-18.814c-2.612-10.082-11.316-18.414-22.155-17.126-28.464 3.597-26.461 47.265 3.911 46.228"/><path fill="#78c2e4" d="M502.308 355.719c2.489-.592 11.163-.357 13.997-.278a123.7 123.7 0 0 1 70.386 23.72c21.383 15.75 44.055 44.265 48.032 70.967-3.817-9.363-12.105-21.664-18.622-29.264-22.87-26.671-56.875-44.654-91.87-47.652-9.329-2.175-30.638.256-40.428 2.408a139.5 139.5 0 0 0-81.938 52.756c-5.013 6.734-7.698 12.285-12.009 19.028 14.881-52.761 57.979-86.98 112.452-91.685"/><path fill="#78c2e4" d="M588.486 445.716c.344-.07.688-.153 1.039-.142 11.244.359 20.871 2.887 28.72 10.965-2.012 2.672-6.774 8.672-9.292 10.543-3.153.967-10.005-5.051-14.615-5.792-31.357-5.046-37.296 42.855-6.24 46.32 4.464.498 10.874-.057 14.255-3.075 2.876-2.568 2.184-7.864 2.164-11.439-4.847-.724-11.151-.551-16.156-.573-.293-4.719-.247-8.737-.187-13.442 4.034-.094 8.279-.031 12.332-.036q10.235.034 20.467-.2c.53 7.782.008 20.142.084 28.26-.165 1.607-1.079 4.631-2.242 5.767-13.507 13.192-41.065 13.431-55.174 1.795-16.859-13.903-17.978-39.432-4.782-55.64 7.399-9.088 18.524-12.303 29.627-13.311"/><path fill="#78c2e4" d="M404.807 447.105c5.247.077 10.173-.045 15.475.191.973 9.837-.081 24.201-.019 34.417.047 7.832.517 16.916.317 24.499 6.449.365 32.203-.293 35.804.887 1.732 3.159 1.027 11.144.786 14.951-17.799-.458-35.545.041-53.623-.528-.3-23.723.069-47.636.081-71.368.001-1.653.237-1.813 1.179-3.049"/></svg>